<svg xmlns="http://www.w3.org/2000/svg" version="1.1" xmlns:xlink="http://www.w3.org/1999/xlink" xmlns:svgjs="http://svgjs.dev/svgjs" width="50" height="50" viewBox="0 0 2000 2431"><g transform="matrix(1,0,0,1,-2.605552686976239,-3.9209677419355558)"><svg viewBox="0 0 204 248" data-background-color="#ffffff" preserveAspectRatio="xMidYMid meet" height="2431" width="2000" xmlns="http://www.w3.org/2000/svg" xmlns:xlink="http://www.w3.org/1999/xlink"><g id="tight-bounds" transform="matrix(1,0,0,1,0.2657663740715748,0.4000000000000057)"><svg viewBox="0 0 203.46846725185685 247.2" height="247.2" width="203.46846725185685"><g><svg viewBox="0 0 203.46846725185685 247.2" height="247.2" width="203.46846725185685"><g><svg viewBox="0 0 203.46846725185685 247.2" height="247.2" width="203.46846725185685"><g id="textblocktransform"><svg viewBox="0 0 203.46846725185685 247.2" height="247.2" width="203.46846725185685" id="textblock"><g><svg viewBox="0 0 203.46846725185685 247.2" height="247.2" width="203.46846725185685"><g transform="matrix(1,0,0,1,0,0)"><svg width="203.46846725185685" viewBox="1.34 -35.4 29.76 36.16" height="247.2" data-palette-color="#b81d33"><path d="M31.1-17.36L31.1-3.54Q28.66-1.46 25.66-0.35 22.66 0.76 19.41 0.76L19.41 0.76Q16.92 0.76 14.61 0.11 12.3-0.54 10.3-1.72 8.3-2.91 6.64-4.55 4.98-6.2 3.81-8.22 2.64-10.23 1.99-12.55 1.34-14.87 1.34-17.36L1.34-17.36Q1.34-19.85 1.99-22.14 2.64-24.44 3.81-26.45 4.98-28.47 6.64-30.11 8.3-31.76 10.3-32.93 12.3-34.11 14.61-34.75 16.92-35.4 19.41-35.4L19.41-35.4Q22.66-35.4 25.66-34.29 28.66-33.18 31.1-31.1L31.1-31.1 27.44-25Q25.85-26.61 23.78-27.53 21.7-28.44 19.41-28.44L19.41-28.44Q17.11-28.44 15.1-27.56 13.09-26.68 11.57-25.18 10.06-23.68 9.18-21.67 8.3-19.65 8.3-17.36L8.3-17.36Q8.3-15.04 9.18-13.01 10.06-10.99 11.57-9.47 13.09-7.96 15.1-7.08 17.11-6.2 19.41-6.2L19.41-6.2Q20.73-6.2 21.97-6.52 23.22-6.84 24.34-7.4L24.34-7.4 24.34-17.36 31.1-17.36Z" opacity="1" transform="matrix(1,0,0,1,0,0)" fill="#b81d33" class="wordmark-text-0" data-fill-palette-color="primary" id="text-0"></path></svg></g></svg></g></svg></g></svg></g></svg></g><defs></defs></svg><rect width="203.46846725185685" height="247.2" fill="none" stroke="none" visibility="hidden"></rect></g></svg></g></svg>